<mxfile host="app.diagrams.net" modified="2024-03-28T05:40:54.496Z" agent="Mozilla/5.0 (Windows NT 10.0; Win64; x64) AppleWebKit/537.36 (KHTML, like Gecko) Chrome/120.0.0.0 YaBrowser/24.1.0.0 Safari/537.36" etag="XN9_qmlRPO930cHTx_lQ" version="24.2.0" type="github">
  <diagram id="prtHgNgQTEPvFCAcTncT" name="Page-1">
    <mxGraphModel dx="1050" dy="575" grid="1" gridSize="10" guides="1" tooltips="1" connect="1" arrows="1" fold="1" page="1" pageScale="1" pageWidth="827" pageHeight="1169" math="0" shadow="0">
      <root>
        <mxCell id="0" />
        <mxCell id="1" parent="0" />
        <mxCell id="dNxyNK7c78bLwvsdeMH5-19" value="Перевод денег между своими счетами" style="swimlane;html=1;childLayout=stackLayout;resizeParent=1;resizeParentMax=0;horizontal=0;startSize=20;horizontalStack=0;" parent="1" vertex="1">
          <mxGeometry x="40" y="120" width="1000" height="370" as="geometry" />
        </mxCell>
        <mxCell id="dNxyNK7c78bLwvsdeMH5-20" value="Клиент банка" style="swimlane;html=1;startSize=20;horizontal=0;" parent="dNxyNK7c78bLwvsdeMH5-19" vertex="1">
          <mxGeometry x="20" width="980" height="120" as="geometry" />
        </mxCell>
        <mxCell id="dNxyNK7c78bLwvsdeMH5-25" value="" style="edgeStyle=orthogonalEdgeStyle;rounded=0;orthogonalLoop=1;jettySize=auto;html=1;" parent="dNxyNK7c78bLwvsdeMH5-20" source="dNxyNK7c78bLwvsdeMH5-23" target="dNxyNK7c78bLwvsdeMH5-24" edge="1">
          <mxGeometry relative="1" as="geometry" />
        </mxCell>
        <mxCell id="dNxyNK7c78bLwvsdeMH5-23" value="" style="ellipse;whiteSpace=wrap;html=1;fillColor=#ffe6cc;strokeColor=#d79b00;" parent="dNxyNK7c78bLwvsdeMH5-20" vertex="1">
          <mxGeometry x="40" y="40" width="40" height="40" as="geometry" />
        </mxCell>
        <mxCell id="Mkx5mwtsMOdmOM8hzKow-3" value="" style="edgeStyle=orthogonalEdgeStyle;rounded=0;orthogonalLoop=1;jettySize=auto;html=1;" edge="1" parent="dNxyNK7c78bLwvsdeMH5-20" source="dNxyNK7c78bLwvsdeMH5-24" target="dNxyNK7c78bLwvsdeMH5-30">
          <mxGeometry relative="1" as="geometry" />
        </mxCell>
        <mxCell id="dNxyNK7c78bLwvsdeMH5-24" value="Зайти в приложение банка" style="rounded=0;whiteSpace=wrap;html=1;fontFamily=Helvetica;fontSize=12;fontColor=#000000;align=center;" parent="dNxyNK7c78bLwvsdeMH5-20" vertex="1">
          <mxGeometry x="120" y="30" width="80" height="60" as="geometry" />
        </mxCell>
        <mxCell id="dNxyNK7c78bLwvsdeMH5-30" value="Выбрать вкладку перевод между своими счетами" style="rounded=0;whiteSpace=wrap;html=1;fontFamily=Helvetica;fontSize=12;fontColor=#000000;align=center;" parent="dNxyNK7c78bLwvsdeMH5-20" vertex="1">
          <mxGeometry x="240" y="30" width="110" height="60" as="geometry" />
        </mxCell>
        <mxCell id="Mkx5mwtsMOdmOM8hzKow-27" value="Инициация перевода" style="text;strokeColor=none;align=center;fillColor=none;html=1;verticalAlign=middle;whiteSpace=wrap;rounded=0;" vertex="1" parent="dNxyNK7c78bLwvsdeMH5-20">
          <mxGeometry x="30" y="80" width="60" height="30" as="geometry" />
        </mxCell>
        <mxCell id="Mkx5mwtsMOdmOM8hzKow-32" value="" style="edgeStyle=orthogonalEdgeStyle;rounded=0;orthogonalLoop=1;jettySize=auto;html=1;" edge="1" parent="dNxyNK7c78bLwvsdeMH5-20" source="Mkx5mwtsMOdmOM8hzKow-28" target="Mkx5mwtsMOdmOM8hzKow-31">
          <mxGeometry relative="1" as="geometry" />
        </mxCell>
        <mxCell id="Mkx5mwtsMOdmOM8hzKow-28" value="" style="rhombus;whiteSpace=wrap;html=1;" vertex="1" parent="dNxyNK7c78bLwvsdeMH5-20">
          <mxGeometry x="380" y="35" width="50" height="50" as="geometry" />
        </mxCell>
        <mxCell id="Mkx5mwtsMOdmOM8hzKow-42" value="" style="edgeStyle=orthogonalEdgeStyle;rounded=0;orthogonalLoop=1;jettySize=auto;html=1;" edge="1" parent="dNxyNK7c78bLwvsdeMH5-20" source="Mkx5mwtsMOdmOM8hzKow-31" target="Mkx5mwtsMOdmOM8hzKow-34">
          <mxGeometry relative="1" as="geometry" />
        </mxCell>
        <mxCell id="Mkx5mwtsMOdmOM8hzKow-31" value="Ввести сумму перевода" style="whiteSpace=wrap;html=1;" vertex="1" parent="dNxyNK7c78bLwvsdeMH5-20">
          <mxGeometry x="470" y="30" width="120" height="60" as="geometry" />
        </mxCell>
        <mxCell id="Mkx5mwtsMOdmOM8hzKow-34" value="Подтвердить перевод кнопкой &quot;Перевести&quot;" style="whiteSpace=wrap;html=1;" vertex="1" parent="dNxyNK7c78bLwvsdeMH5-20">
          <mxGeometry x="620" y="30" width="120" height="60" as="geometry" />
        </mxCell>
        <mxCell id="dNxyNK7c78bLwvsdeMH5-21" value="Система" style="swimlane;html=1;startSize=20;horizontal=0;" parent="dNxyNK7c78bLwvsdeMH5-19" vertex="1">
          <mxGeometry x="20" y="120" width="980" height="130" as="geometry" />
        </mxCell>
        <mxCell id="dNxyNK7c78bLwvsdeMH5-32" value="" style="ellipse;whiteSpace=wrap;html=1;fillColor=#d5e8d4;strokeColor=#82b366;" parent="dNxyNK7c78bLwvsdeMH5-21" vertex="1">
          <mxGeometry x="840" y="30" width="40" height="40" as="geometry" />
        </mxCell>
        <mxCell id="Mkx5mwtsMOdmOM8hzKow-44" value="" style="edgeStyle=orthogonalEdgeStyle;rounded=0;orthogonalLoop=1;jettySize=auto;html=1;entryX=0;entryY=0.5;entryDx=0;entryDy=0;" edge="1" parent="dNxyNK7c78bLwvsdeMH5-21" source="Mkx5mwtsMOdmOM8hzKow-37" target="dNxyNK7c78bLwvsdeMH5-32">
          <mxGeometry relative="1" as="geometry" />
        </mxCell>
        <mxCell id="Mkx5mwtsMOdmOM8hzKow-37" value="Вывести страницу подтверждения с остатками по двум счетам" style="whiteSpace=wrap;html=1;" vertex="1" parent="dNxyNK7c78bLwvsdeMH5-21">
          <mxGeometry x="620" y="20" width="120" height="60" as="geometry" />
        </mxCell>
        <mxCell id="Mkx5mwtsMOdmOM8hzKow-41" value="Перевод осуществлен" style="text;strokeColor=none;align=center;fillColor=none;html=1;verticalAlign=middle;whiteSpace=wrap;rounded=0;" vertex="1" parent="dNxyNK7c78bLwvsdeMH5-21">
          <mxGeometry x="830" y="80" width="60" height="30" as="geometry" />
        </mxCell>
        <mxCell id="dNxyNK7c78bLwvsdeMH5-22" value="База данных системы" style="swimlane;html=1;startSize=20;horizontal=0;" parent="dNxyNK7c78bLwvsdeMH5-19" vertex="1">
          <mxGeometry x="20" y="250" width="980" height="120" as="geometry" />
        </mxCell>
        <mxCell id="Mkx5mwtsMOdmOM8hzKow-4" value="" style="edgeStyle=orthogonalEdgeStyle;rounded=0;orthogonalLoop=1;jettySize=auto;html=1;" edge="1" parent="dNxyNK7c78bLwvsdeMH5-19" source="dNxyNK7c78bLwvsdeMH5-30">
          <mxGeometry relative="1" as="geometry">
            <mxPoint x="400" y="60" as="targetPoint" />
          </mxGeometry>
        </mxCell>
        <mxCell id="Mkx5mwtsMOdmOM8hzKow-43" value="" style="edgeStyle=orthogonalEdgeStyle;rounded=0;orthogonalLoop=1;jettySize=auto;html=1;" edge="1" parent="dNxyNK7c78bLwvsdeMH5-19" source="Mkx5mwtsMOdmOM8hzKow-34" target="Mkx5mwtsMOdmOM8hzKow-37">
          <mxGeometry relative="1" as="geometry" />
        </mxCell>
      </root>
    </mxGraphModel>
  </diagram>
</mxfile>
